<?xml version="1.0" encoding="utf-8"?>
<!-- Generator: Adobe Illustrator 25.2.1, SVG Export Plug-In . SVG Version: 6.00 Build 0)  -->
<svg version="1.1" id="Layer_1" xmlns="http://www.w3.org/2000/svg" xmlns:xlink="http://www.w3.org/1999/xlink" x="0px" y="0px"
	 viewBox="0 0 268 268" style="enable-background:new 0 0 268 268;" xml:space="preserve">
<style type="text/css">
	.st0{fill:none;stroke:#000000;stroke-miterlimit:10;}
</style>
<g id="Layer_2_1_">
	<g id="Layer_1-2">
		<path class="st0" d="M134,0C60,0,0,60,0,134s60,134,134,134s134-60,134-134S208,0,134,0z"/>
		<path d="M80,77c13.5,0,24.5,11,24.5,24.5S93.5,126,80,126s-24.5-11-24.5-24.5C55.5,88,66.5,77,80,77 M80,76
			c-14.1,0-25.5,11.4-25.5,25.5S65.9,127,80,127s25.5-11.4,25.5-25.5S94.1,76,80,76z"/>
		<path d="M188,77c13.5,0,24.5,11,24.5,24.5S201.5,126,188,126s-24.5-11-24.5-24.5C163.5,88,174.5,77,188,77 M188,76
			c-14.1,0-25.5,11.4-25.5,25.5S173.9,127,188,127s25.5-11.4,25.5-25.5S202.1,76,188,76z"/>
		<path class="st0" d="M80.2,171c0,29.5,24,53.5,53.5,53.5s53.5-24,53.5-53.5"/>
	</g>
</g>
</svg>
